<svg fill="#D3D3D3" xmlns="http://www.w3.org/2000/svg" height="24" viewBox="0 -960 960 960" width="24"><path d="M479.692-160q2.923 10.769 8.039 21.116 5.115 10.346 11.5 18.884H224.615Q197-120 178.5-138.5 160-157 160-184.615v-590.77Q160-803 178.5-821.5 197-840 224.615-840h430.77Q683-840 701.5-821.5 720-803 720-775.385v284.769q-8.769-1.23-20-1.23t-20 1.23v-284.769q0-9.23-7.692-16.923Q664.615-800 655.385-800H460v247.693L380-600l-80 47.693V-800h-75.385q-9.23 0-16.923 7.692Q200-784.615 200-775.385v590.77q0 9.23 7.692 16.923Q215.385-160 224.615-160h255.077ZM700-92.307q-66.846 0-113.423-46.577T540-252.308q0-66.846 46.577-113.423T700-412.308q66.846 0 113.423 46.577T860-252.308q0 66.847-46.577 113.424Q766.846-92.307 700-92.307Zm-34.615-84.616 109.231-76.923-109.231-76.923v153.846ZM300-800h160-160Zm179.692 0H200h480-220 19.692Z"/></svg>