<svg fill="#D3D3D3" xmlns="http://www.w3.org/2000/svg" height="24" viewBox="0 -960 960 960" width="24"><path d="m376-327.692 104-104 104 104L612.308-356l-104-104 104-104L584-592.308l-104 104-104-104L347.692-564l104 104-104 104L376-327.692ZM304.615-160Q277-160 258.5-178.5 240-197 240-224.615V-720h-40v-40h160v-30.77h240V-760h160v40h-40v495.385Q720-197 701.5-178.5 683-160 655.385-160h-350.77ZM680-720H280v495.385q0 9.23 7.692 16.923Q295.385-200 304.615-200h350.77q9.23 0 16.923-7.692Q680-215.385 680-224.615V-720Zm-400 0v520-520Z"/></svg>