<svg fill="#D3D3D3" xmlns="http://www.w3.org/2000/svg" height="24" viewBox="0 -960 960 960" width="24"><path d="M224.615-160Q197-160 178.5-178.5 160-197 160-224.615v-510.77Q160-763 178.5-781.5 197-800 224.615-800h510.77Q763-800 781.5-781.5 800-763 800-735.385V-680h-40v-55.385q0-9.23-7.692-16.923Q744.615-760 735.385-760h-510.77q-9.23 0-16.923 7.692Q200-744.615 200-735.385v510.77q0 9.23 7.692 16.923Q215.385-200 224.615-200h510.77q9.23 0 16.923-7.692Q760-215.385 760-224.615V-280h40v55.385Q800-197 781.5-178.5 763-160 735.385-160h-510.77Zm443.847-148.461L640.923-336l122.231-124H375.385v-40h387.769L640.923-624l27.539-27.539L840-480 668.462-308.461Z"/></svg>