<svg fill="#D3D3D3" xmlns="http://www.w3.org/2000/svg" height="24" viewBox="0 -960 960 960" width="24"><path d="M440-163.538q-104.077-14.231-172.039-92.808Q200-334.923 200-440q0-56 22.154-107.269 22.153-51.27 60.923-90.885l28.538 28.539q-35.692 33.23-53.653 77.077Q240-488.692 240-440q0 88 56.385 154.731Q352.769-218.538 440-203.538v40ZM520-162v-40q86.231-19.077 143.115-84.923Q720-352.769 720-440q0-100-70-170t-170-70h-25.308l64 64-28.308 28.308L378.077-700l112.307-112.308L518.692-784l-64 64H480q117.077 0 198.539 81.461Q760-557.077 760-440q0 104.846-68.346 182.654Q623.308-179.538 520-162Z"/></svg>