<svg fill="#D3D3D3" xmlns="http://www.w3.org/2000/svg" height="24" viewBox="0 -960 960 960" width="24"><path d="m184.615-760 60 120h120l-60-120h80l60 120h120l-60-120h80l60 120h120l-60-120h70.77Q803-760 821.5-741.5 840-723 840-695.385v430.77Q840-237 821.5-218.5 803-200 775.385-200h-590.77Q157-200 138.5-218.5 120-237 120-264.615v-430.77Q120-723 138.5-741.5 157-760 184.615-760ZM160-600v335.385q0 10.769 6.923 17.692T184.615-240h590.77q10.769 0 17.692-6.923T800-264.615V-600H160Zm0 0v360-360Z"/></svg>